<svg width="227" height="96" viewBox="0 0 227 96" fill="none" xmlns="http://www.w3.org/2000/svg">
<path d="M21.5722 39.2725C10.5095 39.2725 2.21253 30.4776 2.21253 19.5809C2.21253 8.7395 10.5095 0 21.5722 0C27.3248 0 32.3583 1.60409 36.7834 6.41634L31.8052 11.2839C29.2054 8.7395 26.1079 6.96948 22.0147 6.96948C14.5474 6.96948 10.067 12.7221 10.067 19.6362C10.067 26.6057 14.658 32.303 22.0147 32.303C25.9419 32.303 29.0395 30.5329 31.9711 27.4354L37.1152 32.4689C32.8561 37.1152 28.3204 39.2725 21.5722 39.2725Z" fill="white"/>
<path d="M53.3035 11.0627C63.5364 11.0627 68.1827 18.53 66.634 27.8226L47.4402 27.8779C48.104 31.0308 51.0909 32.3583 53.8566 32.3583C57.1754 32.3583 59.3326 30.4223 60.4389 28.9842L65.9149 33.5199C63.8683 36.1749 59.9411 39.3278 52.9716 39.2725C45.449 39.2171 39.4198 33.6305 39.3092 25.3888C39.1986 16.3727 45.1724 11.0627 53.3035 11.0627ZM53.2481 17.5343C50.7037 17.5343 48.104 18.8065 47.4956 22.2913H58.9454C58.8901 19.0831 56.1244 17.5343 53.2481 17.5343Z" fill="white"/>
<path d="M88.3354 11.0627C95.6367 11.0627 98.3471 16.3727 98.3471 21.4616V38.9959H90.1054V23.1763C90.1054 20.134 89.2204 17.8109 86.0675 17.8109C82.7487 17.8109 80.7021 19.5256 80.7021 23.8954V38.9959H72.4604V11.3392H80.149L80.4809 14.0496C82.2509 12.1136 84.74 11.0627 88.3354 11.0627Z" fill="white"/>
<path d="M117.473 32.0817H121.013V38.9959H115.039C110.061 38.9959 106.134 35.6218 106.134 28.9842V18.1981H101.93V11.837C105.747 11.837 106.466 9.9564 106.466 6.91416V3.3188H113.878V11.5605H119.851V18.1981H113.878V27.8779C113.878 30.6436 114.984 32.0817 117.473 32.0817Z" fill="white"/>
<path d="M142.806 11.2286C143.304 11.2286 143.691 11.2839 144.023 11.3392L143.968 18.8065C136.058 17.9215 133.79 21.6828 133.79 26.661V38.9959H125.991V11.4499H133.458L133.735 15.2112H134.178C134.178 15.1005 137.441 10.952 142.806 11.2286Z" fill="white"/>
<path d="M160.797 11.0627C171.03 11.0627 175.676 18.53 174.128 27.8226L154.934 27.8779C155.598 31.0308 158.585 32.3583 161.35 32.3583C164.669 32.3583 166.826 30.4223 167.933 28.9842L173.409 33.5199C171.362 36.1749 167.435 39.3278 160.465 39.2725C152.943 39.2171 146.913 33.6305 146.803 25.3888C146.692 16.3727 152.666 11.0627 160.797 11.0627ZM160.742 17.5343C158.197 17.5343 155.598 18.8065 154.989 22.2913H166.439C166.384 19.0831 163.618 17.5343 160.742 17.5343Z" fill="white"/>
<path d="M15.9302 62.5521C13.4411 62.5521 12.3349 63.9902 12.3349 66.7559V67.9728L19.4703 68.0281V74.2232H12.3349V95.3529H4.53569V74.2232H0V68.194C3.59537 68.194 4.53569 66.7559 4.53569 64.8199C4.53569 59.012 9.29264 55.6932 13.7177 55.6932H19.5809V62.5521H15.9302Z" fill="white"/>
<path d="M34.8954 95.6294C26.7643 95.6294 20.4033 89.2684 20.4033 81.3586C20.4033 73.7807 26.7643 67.4196 34.8954 67.4196C43.0264 67.4196 49.3874 73.7807 49.3874 81.3586C49.3874 89.2684 43.0264 95.6294 34.8954 95.6294ZM34.8954 88.494C38.2695 88.494 41.0904 85.7283 41.0351 81.3033C40.9798 77.2654 38.2695 74.555 34.8954 74.555C31.4659 74.555 28.645 77.2654 28.7003 81.3033C28.7556 85.7283 31.4659 88.494 34.8954 88.494Z" fill="white"/>
<path d="M71.7202 67.5856C72.218 67.5856 72.6052 67.6409 72.9371 67.6962L72.8818 75.1635C64.972 74.2785 62.7041 78.0398 62.7041 83.018V95.3529H54.9049V67.8068H62.3722L62.6488 71.5681H63.0913C63.0913 71.4575 66.3548 67.309 71.7202 67.5856Z" fill="white"/>
<path d="M93.7085 95.3529V56.6335H101.508V95.3529H93.7085Z" fill="white"/>
<path d="M128.157 56.357H135.956V95.3529H129.152L128.71 93.1956C126.94 94.6891 124.451 95.5188 121.187 95.6294C114.218 95.7954 107.857 90.7618 107.857 81.4139C107.857 73.0616 113.775 67.0877 121.574 67.4196C124.34 67.5303 126.497 68.1387 128.157 69.245V56.357ZM122.459 88.3834C125.28 88.3281 128.157 86.0049 128.157 81.9117V80.8608C128.157 76.7123 125.336 74.3338 122.57 74.3338C118.587 74.3338 115.656 76.5463 115.711 81.4139C115.766 86.0049 118.587 88.4387 122.459 88.3834Z" fill="white"/>
<path d="M155.503 67.4196C165.736 67.4196 170.383 74.8869 168.834 84.1796L149.64 84.2349C150.304 87.3877 153.291 88.7153 156.057 88.7153C159.375 88.7153 161.533 86.7793 162.639 85.3411L168.115 89.8768C166.068 92.5319 162.141 95.6847 155.172 95.6294C147.649 95.5741 141.62 89.9875 141.509 81.7458C141.399 72.7297 147.372 67.4196 155.503 67.4196ZM155.448 73.8913C152.904 73.8913 150.304 75.1635 149.696 78.6482H161.145C161.09 75.4401 158.324 73.8913 155.448 73.8913Z" fill="white"/>
<path d="M182.294 95.6294C176.984 95.8507 172.171 93.4722 172.171 87.6643C172.171 81.5798 177.15 78.7035 184.119 78.5929C186.276 78.5376 187.991 78.6482 189.429 78.8142V77.7079C189.429 75.4954 187.991 74.1125 184.727 74.1125C181.353 74.1125 177.647 75.6613 176.043 76.8229L173.167 70.8491C176.652 68.7471 180.413 67.4196 185.778 67.4196C194.518 67.4196 197.671 72.785 197.671 77.8738V95.3529H190.093L189.706 92.034C188.489 93.6935 186.055 95.4635 182.294 95.6294ZM184.285 89.7662C187.106 89.379 189.097 87.443 189.429 85.673V84.4561C188.102 84.2349 186.387 84.1242 184.783 84.1796C181.796 84.2902 179.915 85.5071 180.192 87.6643C180.358 88.9918 181.464 90.1534 184.285 89.7662Z" fill="white"/>
<path d="M226.822 71.6234L222.009 76.657C221.235 75.6613 218.027 74.0019 214.874 74.0019C212.606 74.0019 211.666 74.721 211.666 75.4401C211.666 76.9335 214.487 77.3207 217.695 78.1504C222.009 79.2567 226.932 80.6395 226.932 86.3921C226.932 92.6425 222.507 95.6294 215.925 95.6294C210.504 95.6294 205.637 94.0253 202.65 91.0937L207.683 85.839C209.343 87.1665 212.053 88.7153 215.483 88.7153C217.861 88.7153 219.133 88.1068 219.133 87.1665C219.133 85.3965 215.206 85.0093 211.334 83.7924C207.351 82.5202 203.258 80.1417 203.811 74.9422C204.309 70.0193 209.177 67.4196 215.151 67.4196C220.571 67.4196 224.222 69.1896 226.822 71.6234Z" fill="white"/>
</svg>

